PathFileType	4	(X/Y/Z)	s10c0303.trc
DataRate	CameraRate	NumFrames	NumMarkers	Units	OrigDataRate	OrigDataStartFrame	OrigNumFrames
200	200	4	50	mm	200	500	2000
Frame#	Time	racr			lacr			c7			jug			rlel			rdr			llel			ldr			s2			lic			ric			lasi			rasi			rpsi			lpsi			rgt			lgt			rth1			rth2			rth3			rth4			rlfc			rmfc			rsh1			rsh2			rsh3			rsh4			rlmal			rmmal			rcal			rtoe			rmt5			lth1			lth2			lth4			lth3			llfc			lmfc			llmal			lmmal			lcal			lmt5			lsh1			lsh2			lsh3			lsh4			ltoe			SBIKE			LBIKE			RBIKE			
		X1	Y1	Z1	X2	Y2	Z2	X3	Y3	Z3	X4	Y4	Z4	X5	Y5	Z5	X6	Y6	Z6	X7	Y7	Z7	X8	Y8	Z8	X9	Y9	Z9	X10	Y10	Z10	X11	Y11	Z11	X12	Y12	Z12	X13	Y13	Z13	X14	Y14	Z14	X15	Y15	Z15	X16	Y16	Z16	X17	Y17	Z17	X18	Y18	Z18	X19	Y19	Z19	X20	Y20	Z20	X21	Y21	Z21	X22	Y22	Z22	X23	Y23	Z23	X24	Y24	Z24	X25	Y25	Z25	X26	Y26	Z26	X27	Y27	Z27	X28	Y28	Z28	X29	Y29	Z29	X30	Y30	Z30	X31	Y31	Z31	X32	Y32	Z32	X33	Y33	Z33	X34	Y34	Z34	X35	Y35	Z35	X36	Y36	Z36	X37	Y37	Z37	X38	Y38	Z38	X39	Y39	Z39	X40	Y40	Z40	X41	Y41	Z41	X42	Y42	Z42	X43	Y43	Z43	X44	Y44	Z44	X45	Y45	Z45	X46	Y46	Z46	X47	Y47	Z47	X48	Y48	Z48	X49	Y49	Z49	X50	Y50	Z50	
500	2.5000	624.154758	1257.747138	7.265917	621.488008	1318.842144	-322.375818	612.733877	1341.676741	-160.076797	589.665985	1200.796757	-178.673845	489.222128	1014.050845	49.943174	640.311240	884.478427	-49.969578	565.228724	1079.595978	-465.979701	648.579850	882.512411	-415.078214	79.324767	1184.318844	-182.525310	233.322990	1201.182590	-355.585117	262.004306	1164.578843	-70.078401	244.791658	1112.898503	-338.236005	271.418463	1086.699346	-87.694381	134.389501	1231.936736	-134.044510	133.150631	1249.361553	-244.377442	178.500408	1075.132001	-17.722273	103.227228	1067.841667	-386.483877	238.136510	939.664317	-10.204193	294.245761	875.120773	-36.079406	308.916044	792.032142	-50.194906	324.017683	894.437627	-47.695467	361.052448	700.372540	-79.720853	330.316542	690.331082	-189.308029	310.000479	598.776563	-38.221722	308.514551	510.817452	-51.298233	266.240362	435.364861	-47.567197	332.164177	506.518313	-81.629306	229.248051	339.818037	-56.598417	246.745890	348.641726	-140.892168	171.703496	329.487017	-100.530065	403.714295	255.327650	-107.059409	320.828473	247.011334	-39.877326	177.732823	956.745460	-418.714395	248.771257	906.563617	-416.513007	276.212682	929.217877	-408.788605	285.161924	825.783547	-419.430960	340.868166	728.275430	-415.374306	347.208831	713.266006	-295.535573	12.786320	533.892347	-382.590778	33.485502	521.343328	-305.047771	-41.009269	548.927571	-331.722008	25.586951	384.523515	-396.363123	226.668377	677.902602	-436.193117	175.274945	609.313148	-414.638981	92.691599	576.557766	-403.171013	196.272121	588.668617	-389.620711	97.008019	344.335382	-347.805100	-216.993815	830.563568	-213.514043	-103.930305	80.664046	-418.358379	-103.912795	80.552550	-18.334914	
501	2.5050	627.353052	1258.498738	5.156982	617.595399	1320.800069	-324.552213	612.004950	1342.390985	-161.356522	591.058204	1201.398129	-180.845721	492.200307	1015.606726	53.010179	640.343212	884.047865	-49.504078	563.096499	1079.510404	-465.565306	648.505708	882.905152	-414.084560	79.075564	1181.995187	-182.049486	231.311555	1199.202402	-352.102178	262.543306	1161.269335	-68.662945	245.432621	1111.741581	-337.123095	272.268742	1083.569955	-86.712336	134.020363	1228.919624	-131.749344	132.777460	1247.081210	-242.286046	178.486782	1071.210594	-17.992468	104.452235	1066.912185	-386.043128	237.657939	935.717958	-9.074752	292.681466	870.551951	-35.297966	306.740408	787.199665	-49.483516	323.112091	889.410488	-46.971885	357.654728	694.901072	-78.881885	326.522564	685.174356	-188.304030	306.887724	592.870982	-37.580863	305.654804	505.004216	-50.855821	263.706328	429.237160	-47.100275	329.346230	500.714050	-81.196327	226.893177	334.152769	-56.320047	244.476528	342.882807	-140.734137	169.501100	324.343731	-100.380902	400.981881	248.574731	-106.914632	318.042354	240.818133	-39.856925	178.903865	955.923889	-419.122263	250.567930	906.719568	-417.378848	277.654771	929.416906	-409.337759	288.273194	826.628584	-421.599242	345.368667	730.057704	-418.642647	353.804318	714.775523	-298.593647	16.136368	539.639773	-383.122355	37.161918	527.188580	-305.526886	-37.545379	555.085397	-332.046210	28.674317	390.415159	-396.510283	230.956371	681.383209	-438.395402	179.005486	613.311191	-416.413891	96.257053	581.406176	-404.239681	200.086536	592.476556	-391.728610	100.023017	350.153888	-347.844675	-217.007226	830.555818	-213.513594	-103.912920	80.665649	-418.348961	-103.907556	80.546783	-18.327605	
502	2.5100	630.621730	1259.213879	2.682783	613.625688	1322.558379	-326.775768	611.263830	1343.013915	-162.939860	592.494099	1201.924993	-183.371552	495.513572	1016.993313	55.818449	640.355821	883.482228	-48.851090	560.812970	1079.420979	-465.285029	648.455534	883.433347	-413.443813	79.491043	1178.878118	-180.390291	231.406035	1198.180612	-350.347366	263.025050	1157.993781	-67.354761	246.041593	1110.551738	-335.922878	273.054231	1080.493570	-85.721510	133.714565	1225.679601	-129.608636	132.491361	1244.863428	-240.326215	178.348414	1066.865550	-17.637987	106.324066	1066.056961	-386.005039	236.976177	931.589474	-8.321746	291.196031	865.764081	-34.514185	304.397123	782.355361	-48.749278	321.746734	884.343376	-46.171038	354.108546	689.378104	-78.038631	322.622482	680.316850	-187.405487	303.470933	587.120749	-36.879156	302.555846	499.182912	-50.398318	260.812505	423.402929	-46.695479	326.253213	495.168615	-80.656690	224.401869	328.665401	-55.943337	241.706962	337.091319	-140.248084	167.096854	319.296042	-100.170330	398.021107	241.896485	-106.912348	314.945464	234.693283	-39.852878	180.338452	955.318478	-419.576140	252.729599	907.079764	-418.936287	279.553400	930.175546	-410.931038	291.498910	827.555839	-423.596487	350.124441	732.583028	-422.097006	360.442593	716.588073	-301.747812	19.718073	545.305699	-383.659601	41.004535	532.868721	-306.160326	-33.785941	561.124250	-332.318296	31.988541	396.322168	-396.747274	234.813983	684.764264	-440.146319	182.669884	617.194795	-417.942501	99.978942	586.381492	-405.342097	204.035369	596.408631	-394.009422	103.278105	355.961191	-347.875805	-217.018136	830.558299	-213.482313	-103.921146	80.657668	-418.351336	-103.924176	80.545309	-18.325772	
503	2.5150	634.084498	1259.879622	-0.080763	609.617295	1324.020638	-329.121750	610.577436	1343.523083	-164.860313	590.797254	1201.826841	-181.373693	499.058268	1018.359142	58.492704	640.391920	883.090822	-48.281390	558.297334	1079.324972	-465.228112	648.298493	883.947670	-412.827632	80.116655	1175.649020	-179.023243	231.620433	1197.311539	-348.704041	263.518992	1154.829937	-65.891200	246.920162	1109.598052	-335.114968	273.833712	1077.604982	-84.639199	133.581036	1222.515816	-127.447272	132.233277	1242.656252	-238.371269	178.110669	1062.290522	-17.171113	108.529192	1065.178315	-386.113379	236.016981	927.368279	-7.718935	289.524293	861.166639	-33.674309	301.777605	777.505762	-47.953474	320.365258	879.116899	-45.257964	350.328566	683.738035	-77.131001	318.808388	675.520644	-186.368677	299.877969	581.442307	-36.135766	299.243668	493.700262	-49.723644	257.637362	417.814415	-46.256099	322.790965	489.839608	-79.853876	221.747515	323.239502	-55.772358	238.910795	331.574457	-140.111878	164.799746	313.916608	-100.333506	394.825081	235.258997	-106.933317	311.773520	228.698662	-39.727855	182.414878	954.886381	-420.547471	255.187698	907.660152	-420.425394	281.723708	930.993441	-412.414294	294.965586	828.566427	-425.643891	354.698980	734.838210	-424.853442	367.284317	718.474816	-304.551692	23.570457	550.950742	-384.312606	45.103537	538.557027	-306.892232	-29.794610	567.021839	-332.693804	35.499546	402.008737	-396.903054	239.265506	688.602672	-442.401421	186.714430	621.413785	-419.981652	103.812857	591.421242	-406.431466	208.097753	600.381116	-396.232012	106.792686	361.641781	-348.021359	-217.018873	830.569134	-213.472671	-103.925396	80.674577	-418.341286	-103.906191	80.545981	-18.325530	
